
<svg
  width="100%"
  viewBox="0 0 69 20"
  version="1.1"
  xmlns="http://www.w3.org/2000/svg">
  <g id="Mollielogo" stroke="none" stroke-width="1" fill="none" fill-rule="evenodd">
    <path
      d="M29.14,17.2888036 C26.9700732,17.2888036 25.211,15.5286305 25.211,13.3573469 C25.211,11.1860633 26.9700732,9.42589016 29.14,9.42589016 C31.3099268,9.42589016 33.069,11.1860633 33.069,13.3573469 C33.069,15.5286305 31.3099268,17.2888036 29.14,17.2888036 Z M29.14,6.71819814 C26.7495938,6.6888364 24.5281033,7.94807622 23.3243493,10.0147681 C22.1205952,12.08146 22.1205952,14.6362357 23.3243493,16.7029275 C24.5281033,18.7696194 26.7495938,20.0288593 29.14,19.9994975 C32.7734651,19.9548671 35.6955337,16.9948588 35.6955337,13.3588478 C35.6955337,9.72283689 32.7734651,6.76282858 29.14,6.71819814 Z M54.034,1.87116928 C54.034,2.90458753 53.1967725,3.74233856 52.164,3.74233856 C51.1312275,3.74233856 50.294,2.90458753 50.294,1.87116928 C50.294,0.837751021 51.1312275,1.89835854e-16 52.164,0 C53.1967725,-1.89835854e-16 54.034,0.837751021 54.034,1.87116928 Z M20.22,12.5208242 L20.22,19.7153199 L17.486,19.7153199 L17.486,12.4237635 C17.466553,10.7769277 16.1368131,9.44680063 14.491,9.42789141 C12.814,9.41388265 11.442,10.8287668 11.442,12.5058148 L11.442,19.7143193 L8.706,19.7143193 L8.706,12.443776 C8.69202404,10.7957227 7.36492535,9.46068345 5.718,9.43789766 C4.037,9.42188766 2.662,10.8387731 2.662,12.5208242 L2.662,19.7153199 L0,19.7153199 L0,12.4237635 C0,9.26178761 2.56,6.70519002 5.72,6.70519002 C7.473,6.70519002 9.04,7.49868586 10.09,8.73946121 C11.2190166,7.40166058 12.895827,6.65168896 14.645,6.70218814 C17.762,6.79224442 20.218,9.40087453 20.218,12.5208242 L20.22,12.5208242 Z M38.13,19.7243256 L40.865,19.7243256 L40.865,0.327204467 L38.13,0.327204467 L38.13,19.7243256 Z M44.47,19.7243256 L47.2,19.7243256 L47.2,0.327204467 L44.466,0.327204467 L44.47,19.7243256 Z M50.797,19.7143193 L53.531,19.7143193 L53.531,7.04440199 L50.797,7.04440199 L50.797,19.7143193 Z M62.606,9.13570883 C64.3889454,9.136208 65.9325865,10.375137 66.32,12.1165715 L58.892,12.1165715 C59.2794135,10.375137 60.8230546,9.136208 62.606,9.13570883 Z M62.657,6.70018689 C59.0577184,6.74772007 56.1530092,9.65868575 56.111,13.2602862 C56.068,16.9375842 59.068,19.9774838 62.744,19.9804856 C65.0881721,19.9832255 67.2597061,18.7476595 68.456,16.7304547 C68.4575618,16.7276781 68.4566839,16.7241643 68.454,16.7224497 L66.239,15.6317682 C65.3777609,17.0593939 63.7233556,17.804584 62.0842814,17.5031688 C60.4452072,17.2017536 59.1636904,15.9166664 58.866,14.2759209 L69,14.2759209 L69,13.0431506 C69,9.55296957 66.146,6.65515875 62.657,6.70018689 Z"
      id="Shape"
      fill="#000000"
    />
  </g>
</svg>
